<?xml version="1.0" encoding="UTF-8"?>
<svg xmlns="http://www.w3.org/2000/svg" version="1.1" width="300" height="300" viewBox="0 0 300 300"><rect x="0" y="0" width="300" height="300" fill="#ffffff"/><g transform="scale(12)"><g transform="translate(0,0)"><path fill-rule="evenodd" d="M11 0L11 2L10 2L10 3L9 3L9 1L8 1L8 3L9 3L9 4L8 4L8 8L6 8L6 9L7 9L7 10L6 10L6 11L5 11L5 9L4 9L4 8L3 8L3 9L2 9L2 8L0 8L0 10L2 10L2 11L3 11L3 12L2 12L2 13L1 13L1 12L0 12L0 13L1 13L1 14L0 14L0 15L1 15L1 16L0 16L0 17L2 17L2 16L3 16L3 17L5 17L5 16L6 16L6 17L7 17L7 16L6 16L6 15L8 15L8 19L9 19L9 16L10 16L10 17L11 17L11 18L13 18L13 19L12 19L12 22L14 22L14 23L13 23L13 24L12 24L12 23L10 23L10 20L11 20L11 19L10 19L10 20L9 20L9 21L8 21L8 22L9 22L9 23L8 23L8 25L10 25L10 24L12 24L12 25L14 25L14 23L15 23L15 24L16 24L16 25L17 25L17 23L18 23L18 21L20 21L20 22L19 22L19 23L21 23L21 24L22 24L22 23L23 23L23 21L22 21L22 22L21 22L21 20L25 20L25 17L24 17L24 18L23 18L23 16L24 16L24 15L25 15L25 12L23 12L23 13L22 13L22 12L21 12L21 11L20 11L20 9L21 9L21 8L18 8L18 10L17 10L17 11L16 11L16 12L15 12L15 9L14 9L14 8L13 8L13 6L14 6L14 7L15 7L15 8L17 8L17 5L16 5L16 4L17 4L17 0L15 0L15 3L16 3L16 4L15 4L15 5L14 5L14 4L13 4L13 1L14 1L14 0ZM10 3L10 5L9 5L9 8L8 8L8 10L7 10L7 11L6 11L6 12L7 12L7 13L6 13L6 14L8 14L8 15L9 15L9 14L12 14L12 11L13 11L13 9L12 9L12 5L11 5L11 3ZM10 5L10 8L11 8L11 5ZM15 6L15 7L16 7L16 6ZM22 8L22 9L24 9L24 10L23 10L23 11L25 11L25 9L24 9L24 8ZM9 9L9 10L10 10L10 9ZM4 11L4 12L5 12L5 11ZM8 11L8 12L10 12L10 13L11 13L11 11ZM17 12L17 13L18 13L18 12ZM20 12L20 13L19 13L19 14L17 14L17 15L16 15L16 13L15 13L15 14L14 14L14 13L13 13L13 15L11 15L11 17L13 17L13 18L14 18L14 19L13 19L13 20L14 20L14 19L15 19L15 18L16 18L16 16L17 16L17 15L19 15L19 14L20 14L20 16L21 16L21 15L22 15L22 16L23 16L23 15L24 15L24 13L23 13L23 15L22 15L22 14L21 14L21 12ZM2 13L2 14L1 14L1 15L2 15L2 14L3 14L3 13ZM3 15L3 16L5 16L5 15ZM13 15L13 16L14 16L14 18L15 18L15 16L16 16L16 15L15 15L15 16L14 16L14 15ZM17 17L17 20L20 20L20 17ZM18 18L18 19L19 19L19 18ZM21 18L21 19L23 19L23 18ZM15 20L15 21L16 21L16 20ZM24 22L24 23L25 23L25 22ZM9 23L9 24L10 24L10 23ZM18 24L18 25L20 25L20 24ZM23 24L23 25L25 25L25 24ZM0 0L0 7L7 7L7 0ZM1 1L1 6L6 6L6 1ZM2 2L2 5L5 5L5 2ZM18 0L18 7L25 7L25 0ZM19 1L19 6L24 6L24 1ZM20 2L20 5L23 5L23 2ZM0 18L0 25L7 25L7 18ZM1 19L1 24L6 24L6 19ZM2 20L2 23L5 23L5 20Z" fill="#000000"/></g></g></svg>
