<?xml version="1.0" encoding="UTF-8"?>
<svg xmlns="http://www.w3.org/2000/svg" version="1.1" width="300" height="300" viewBox="0 0 300 300"><rect x="0" y="0" width="300" height="300" fill="#ffffff"/><g transform="scale(9.091)"><g transform="translate(0,0)"><path fill-rule="evenodd" d="M8 0L8 1L9 1L9 2L10 2L10 3L11 3L11 1L13 1L13 0L11 0L11 1L9 1L9 0ZM15 0L15 1L16 1L16 2L15 2L15 3L16 3L16 4L14 4L14 5L15 5L15 6L14 6L14 7L13 7L13 5L12 5L12 4L13 4L13 2L12 2L12 4L11 4L11 5L10 5L10 4L9 4L9 5L10 5L10 8L9 8L9 6L8 6L8 8L9 8L9 9L8 9L8 10L6 10L6 11L8 11L8 13L7 13L7 12L5 12L5 10L4 10L4 9L5 9L5 8L3 8L3 10L2 10L2 11L1 11L1 10L0 10L0 11L1 11L1 12L0 12L0 14L1 14L1 15L0 15L0 16L1 16L1 17L0 17L0 19L1 19L1 20L0 20L0 25L2 25L2 24L3 24L3 23L4 23L4 25L5 25L5 24L6 24L6 25L7 25L7 24L9 24L9 25L8 25L8 26L10 26L10 27L9 27L9 28L8 28L8 30L10 30L10 32L9 32L9 31L8 31L8 33L10 33L10 32L11 32L11 33L12 33L12 31L13 31L13 33L14 33L14 31L16 31L16 32L15 32L15 33L18 33L18 32L19 32L19 31L20 31L20 32L21 32L21 30L23 30L23 29L27 29L27 30L28 30L28 31L27 31L27 32L23 32L23 31L22 31L22 32L23 32L23 33L30 33L30 32L33 32L33 28L32 28L32 27L29 27L29 25L30 25L30 24L31 24L31 26L32 26L32 24L31 24L31 23L33 23L33 22L32 22L32 21L31 21L31 23L30 23L30 24L29 24L29 22L30 22L30 21L28 21L28 20L27 20L27 22L26 22L26 21L25 21L25 20L23 20L23 23L22 23L22 22L21 22L21 23L22 23L22 24L23 24L23 23L27 23L27 22L28 22L28 24L24 24L24 26L23 26L23 25L22 25L22 29L21 29L21 28L20 28L20 29L19 29L19 30L18 30L18 29L15 29L15 30L12 30L12 29L13 29L13 28L16 28L16 24L18 24L18 23L19 23L19 25L17 25L17 27L18 27L18 26L19 26L19 27L21 27L21 26L19 26L19 25L21 25L21 24L20 24L20 23L19 23L19 22L20 22L20 21L22 21L22 20L20 20L20 19L22 19L22 18L23 18L23 19L27 19L27 18L28 18L28 19L29 19L29 17L30 17L30 16L31 16L31 18L32 18L32 19L30 19L30 20L33 20L33 15L32 15L32 16L31 16L31 15L30 15L30 16L29 16L29 14L28 14L28 12L31 12L31 13L33 13L33 12L31 12L31 11L33 11L33 10L32 10L32 9L33 9L33 8L32 8L32 9L30 9L30 10L31 10L31 11L28 11L28 12L26 12L26 13L25 13L25 12L24 12L24 13L23 13L23 14L19 14L19 13L20 13L20 12L18 12L18 11L19 11L19 10L20 10L20 11L21 11L21 10L22 10L22 12L23 12L23 11L25 11L25 10L24 10L24 9L25 9L25 8L24 8L24 9L21 9L21 8L20 8L20 7L21 7L21 5L20 5L20 4L22 4L22 3L23 3L23 4L24 4L24 5L22 5L22 8L23 8L23 6L24 6L24 7L25 7L25 6L24 6L24 5L25 5L25 3L24 3L24 2L23 2L23 1L24 1L24 0L21 0L21 1L19 1L19 0L18 0L18 1L19 1L19 2L18 2L18 3L17 3L17 0ZM19 2L19 3L18 3L18 4L17 4L17 5L18 5L18 4L20 4L20 3L21 3L21 2ZM11 5L11 7L12 7L12 9L10 9L10 10L9 10L9 11L10 11L10 10L12 10L12 11L13 11L13 10L12 10L12 9L13 9L13 7L12 7L12 5ZM19 5L19 7L18 7L18 6L17 6L17 8L15 8L15 7L16 7L16 6L15 6L15 7L14 7L14 13L15 13L15 14L14 14L14 15L12 15L12 16L11 16L11 14L13 14L13 13L11 13L11 12L10 12L10 13L8 13L8 14L9 14L9 15L6 15L6 14L7 14L7 13L5 13L5 12L4 12L4 10L3 10L3 12L2 12L2 13L5 13L5 14L4 14L4 15L3 15L3 14L2 14L2 15L3 15L3 16L2 16L2 17L3 17L3 18L2 18L2 20L1 20L1 21L2 21L2 22L1 22L1 24L2 24L2 23L3 23L3 22L4 22L4 23L6 23L6 24L7 24L7 23L6 23L6 22L8 22L8 23L9 23L9 24L10 24L10 26L11 26L11 28L10 28L10 29L11 29L11 28L12 28L12 27L14 27L14 26L15 26L15 25L13 25L13 24L14 24L14 21L12 21L12 19L13 19L13 20L14 20L14 19L15 19L15 20L16 20L16 21L17 21L17 22L16 22L16 23L18 23L18 21L19 21L19 19L18 19L18 18L19 18L19 14L18 14L18 15L16 15L16 13L15 13L15 12L16 12L16 11L15 11L15 10L16 10L16 9L17 9L17 11L18 11L18 9L19 9L19 7L20 7L20 5ZM0 8L0 9L2 9L2 8ZM6 8L6 9L7 9L7 8ZM17 8L17 9L18 9L18 8ZM26 8L26 9L27 9L27 10L29 10L29 9L27 9L27 8ZM20 9L20 10L21 10L21 9ZM17 12L17 13L18 13L18 12ZM24 13L24 14L23 14L23 15L20 15L20 16L21 16L21 17L20 17L20 18L21 18L21 17L22 17L22 16L23 16L23 18L25 18L25 17L24 17L24 15L26 15L26 16L27 16L27 15L26 15L26 14L27 14L27 13L26 13L26 14L25 14L25 13ZM5 15L5 16L6 16L6 17L7 17L7 16L6 16L6 15ZM9 15L9 16L10 16L10 17L9 17L9 18L6 18L6 19L7 19L7 20L6 20L6 21L5 21L5 22L6 22L6 21L8 21L8 20L10 20L10 21L11 21L11 19L12 19L12 18L15 18L15 19L16 19L16 20L17 20L17 21L18 21L18 20L17 20L17 19L16 19L16 18L18 18L18 17L16 17L16 18L15 18L15 16L16 16L16 15L15 15L15 16L14 16L14 17L11 17L11 16L10 16L10 15ZM4 17L4 18L3 18L3 19L4 19L4 18L5 18L5 17ZM9 18L9 19L11 19L11 18ZM2 20L2 21L4 21L4 20ZM24 21L24 22L25 22L25 21ZM10 22L10 24L11 24L11 22ZM12 22L12 23L13 23L13 22ZM12 25L12 26L13 26L13 25ZM25 25L25 28L28 28L28 25ZM26 26L26 27L27 27L27 26ZM30 28L30 29L28 29L28 30L29 30L29 31L30 31L30 29L31 29L31 28ZM11 30L11 31L12 31L12 30ZM16 30L16 31L17 31L17 32L18 32L18 30ZM25 30L25 31L26 31L26 30ZM0 0L0 7L7 7L7 0ZM1 1L1 6L6 6L6 1ZM2 2L2 5L5 5L5 2ZM26 0L26 7L33 7L33 0ZM27 1L27 6L32 6L32 1ZM28 2L28 5L31 5L31 2ZM0 26L0 33L7 33L7 26ZM1 27L1 32L6 32L6 27ZM2 28L2 31L5 31L5 28Z" fill="#000000"/></g></g></svg>
