<?xml version="1.0" encoding="UTF-8"?>
<svg xmlns="http://www.w3.org/2000/svg" version="1.1" width="300" height="300" viewBox="0 0 300 300"><rect x="0" y="0" width="300" height="300" fill="#ffffff"/><g transform="scale(9.091)"><g transform="translate(0,0)"><path fill-rule="evenodd" d="M9 0L9 1L8 1L8 3L9 3L9 4L8 4L8 8L6 8L6 9L7 9L7 10L6 10L6 11L5 11L5 9L4 9L4 8L3 8L3 9L4 9L4 10L2 10L2 8L0 8L0 10L1 10L1 11L0 11L0 14L1 14L1 15L2 15L2 13L3 13L3 14L4 14L4 16L1 16L1 17L0 17L0 19L1 19L1 17L3 17L3 18L5 18L5 16L6 16L6 17L7 17L7 18L6 18L6 19L8 19L8 20L4 20L4 21L3 21L3 22L0 22L0 23L1 23L1 24L0 24L0 25L1 25L1 24L2 24L2 25L3 25L3 24L4 24L4 25L5 25L5 23L7 23L7 22L8 22L8 21L9 21L9 23L8 23L8 24L9 24L9 25L8 25L8 27L9 27L9 29L8 29L8 30L9 30L9 29L10 29L10 31L8 31L8 33L9 33L9 32L10 32L10 31L12 31L12 32L13 32L13 30L14 30L14 32L16 32L16 33L17 33L17 32L18 32L18 31L19 31L19 33L20 33L20 31L21 31L21 33L22 33L22 30L20 30L20 31L19 31L19 29L23 29L23 32L24 32L24 33L25 33L25 32L26 32L26 33L27 33L27 31L31 31L31 30L30 30L30 29L29 29L29 27L30 27L30 26L31 26L31 27L32 27L32 29L33 29L33 27L32 27L32 26L33 26L33 25L32 25L32 26L31 26L31 25L29 25L29 24L30 24L30 22L31 22L31 21L32 21L32 23L31 23L31 24L33 24L33 21L32 21L32 20L31 20L31 21L30 21L30 18L31 18L31 19L33 19L33 18L31 18L31 17L29 17L29 16L30 16L30 14L31 14L31 16L32 16L32 17L33 17L33 16L32 16L32 14L33 14L33 9L32 9L32 8L30 8L30 9L29 9L29 8L26 8L26 9L25 9L25 4L23 4L23 2L25 2L25 1L23 1L23 0L22 0L22 1L23 1L23 2L22 2L22 4L21 4L21 6L20 6L20 5L19 5L19 4L20 4L20 2L19 2L19 1L20 1L20 0L16 0L16 1L14 1L14 0L12 0L12 1L11 1L11 2L9 2L9 1L10 1L10 0ZM16 1L16 2L14 2L14 3L16 3L16 4L15 4L15 8L14 8L14 6L13 6L13 3L12 3L12 4L9 4L9 5L10 5L10 6L9 6L9 7L10 7L10 8L8 8L8 9L9 9L9 10L10 10L10 8L11 8L11 9L12 9L12 10L11 10L11 11L9 11L9 13L12 13L12 12L13 12L13 15L15 15L15 16L16 16L16 18L15 18L15 17L13 17L13 16L12 16L12 14L10 14L10 15L11 15L11 16L12 16L12 17L11 17L11 18L10 18L10 20L9 20L9 21L10 21L10 25L9 25L9 27L11 27L11 19L12 19L12 20L13 20L13 21L14 21L14 22L15 22L15 23L14 23L14 24L12 24L12 28L11 28L11 30L12 30L12 28L14 28L14 29L15 29L15 31L16 31L16 32L17 32L17 30L18 30L18 29L19 29L19 28L18 28L18 29L17 29L17 28L16 28L16 27L20 27L20 26L19 26L19 25L20 25L20 23L22 23L22 26L23 26L23 27L22 27L22 28L23 28L23 29L24 29L24 26L23 26L23 23L24 23L24 20L21 20L21 21L23 21L23 22L20 22L20 14L19 14L19 13L21 13L21 12L19 12L19 13L16 13L16 12L18 12L18 11L16 11L16 10L17 10L17 9L18 9L18 10L20 10L20 6L19 6L19 5L16 5L16 4L18 4L18 3L16 3L16 2L17 2L17 1ZM22 4L22 6L21 6L21 7L22 7L22 9L21 9L21 10L23 10L23 11L22 11L22 13L23 13L23 14L24 14L24 16L25 16L25 19L26 19L26 18L29 18L29 17L28 17L28 16L29 16L29 15L28 15L28 13L29 13L29 12L30 12L30 13L32 13L32 12L31 12L31 11L32 11L32 9L30 9L30 11L29 11L29 9L27 9L27 10L26 10L26 11L27 11L27 10L28 10L28 12L27 12L27 17L26 17L26 15L25 15L25 14L26 14L26 13L25 13L25 14L24 14L24 13L23 13L23 11L24 11L24 9L23 9L23 7L24 7L24 5L23 5L23 4ZM11 5L11 6L10 6L10 7L11 7L11 6L12 6L12 8L13 8L13 6L12 6L12 5ZM16 6L16 7L17 7L17 8L19 8L19 6L18 6L18 7L17 7L17 6ZM22 6L22 7L23 7L23 6ZM15 8L15 9L14 9L14 10L16 10L16 8ZM7 10L7 11L6 11L6 12L5 12L5 11L3 11L3 13L5 13L5 15L6 15L6 16L7 16L7 17L9 17L9 15L8 15L8 12L7 12L7 11L8 11L8 10ZM1 11L1 13L2 13L2 11ZM14 11L14 12L16 12L16 11ZM6 12L6 13L7 13L7 12ZM15 13L15 15L16 15L16 16L17 16L17 17L18 17L18 18L17 18L17 19L15 19L15 20L14 20L14 18L13 18L13 20L14 20L14 21L15 21L15 20L19 20L19 17L18 17L18 16L19 16L19 15L17 15L17 14L16 14L16 13ZM6 14L6 15L7 15L7 14ZM21 14L21 15L22 15L22 14ZM21 17L21 19L24 19L24 18L23 18L23 17ZM2 19L2 20L1 20L1 21L2 21L2 20L3 20L3 19ZM26 20L26 21L25 21L25 23L26 23L26 21L27 21L27 22L30 22L30 21L29 21L29 20ZM4 21L4 22L3 22L3 23L2 23L2 24L3 24L3 23L5 23L5 21ZM6 21L6 22L7 22L7 21ZM17 21L17 22L16 22L16 23L18 23L18 24L17 24L17 25L16 25L16 26L17 26L17 25L18 25L18 24L19 24L19 23L20 23L20 22L18 22L18 21ZM28 23L28 24L29 24L29 23ZM6 24L6 25L7 25L7 24ZM14 24L14 25L13 25L13 27L15 27L15 24ZM25 25L25 28L28 28L28 25ZM26 26L26 27L27 27L27 26ZM15 28L15 29L16 29L16 28ZM27 29L27 30L24 30L24 31L27 31L27 30L28 30L28 29ZM32 30L32 31L33 31L33 30ZM28 32L28 33L29 33L29 32ZM31 32L31 33L32 33L32 32ZM0 0L0 7L7 7L7 0ZM1 1L1 6L6 6L6 1ZM2 2L2 5L5 5L5 2ZM26 0L26 7L33 7L33 0ZM27 1L27 6L32 6L32 1ZM28 2L28 5L31 5L31 2ZM0 26L0 33L7 33L7 26ZM1 27L1 32L6 32L6 27ZM2 28L2 31L5 31L5 28Z" fill="#000000"/></g></g></svg>
